<svg width="90" height="90" viewBox="0 0 90 90" fill="none" xmlns="http://www.w3.org/2000/svg">
<path fill-rule="evenodd" clip-rule="evenodd" d="M41.8312 0.178274C41.2508 0.422151 40.635 1.00907 40.2755 1.6607C40.0154 2.1321 39.979 3.31456 39.934 12.782L39.8835 23.3758L26.1287 23.3796C13.1865 23.3833 12.332 23.4025 11.6664 23.7048C10.8493 24.0759 0.553574 34.4751 0.203254 35.283C-0.0677514 35.9081 -0.0677514 36.8664 0.203254 37.4914C0.553574 38.2994 10.8493 48.6985 11.6664 49.0697C12.3278 49.37 13.1097 49.3913 23.6787 49.3948C36.0011 49.399 35.633 49.4279 36.6135 48.3847C37.5712 47.3657 37.5711 45.6292 36.6131 44.61C35.6385 43.5731 35.9241 43.5972 24.4701 43.5868L13.9567 43.5773L10.4647 39.9823L6.97276 36.3872L10.4647 32.7922L13.9567 29.1972L26.9266 29.1877L39.8965 29.1782L39.9007 54.3659C39.9032 68.8528 39.9728 79.8467 40.0648 80.2434C40.6504 82.7678 43.9765 83.3422 45.2663 81.1417L45.7 80.4018V44.6798V8.95767H60.8749H76.05L79.5391 12.5713L83.0282 16.185L79.5322 19.7593L76.0364 23.3334L62.885 23.3547C48.5112 23.3777 49.018 23.3413 48.1146 24.4148C47.1503 25.5606 47.151 26.9944 48.1167 28.1417C49.0222 29.2177 48.4327 29.1785 63.6764 29.1743C76.7839 29.1706 77.6614 29.1513 78.3244 28.8503C79.1244 28.4868 89.4295 18.0682 89.7898 17.2583C90.0733 16.6211 90.0698 15.7528 89.7805 15.0609C89.472 14.3224 79.126 3.81199 78.3411 3.43958C77.8028 3.1841 76.1129 3.15526 61.721 3.15526H45.7V2.71006C45.7 0.929774 43.4875 -0.518015 41.8312 0.178274ZM49.1293 74.8445C48.5806 74.9778 47.6611 75.7393 47.3705 76.3011C47.039 76.9418 47.0301 78.2797 47.3528 78.9031C47.488 79.1642 48.0024 79.7437 48.4959 80.191C49.6407 81.2286 49.6712 81.662 48.6596 82.5276C47.2437 83.7393 45.0094 84.3025 42.1827 84.16C40.1932 84.0596 38.9083 83.7159 37.5503 82.9201C36.8704 82.5218 36.2034 81.7288 36.2034 81.3191C36.2034 81.2652 36.6364 80.7502 37.1655 80.1747C38.2235 79.024 38.3996 78.5899 38.2708 77.4493C38.0426 75.4244 35.9391 74.3793 34.0536 75.3541C33.2288 75.7805 31.7347 77.4361 31.2125 78.5022C28.793 83.4427 32.7498 88.5285 39.9635 89.7509C42.8417 90.2387 45.6205 90.0119 48.4946 89.0548C51.232 88.1435 53.509 86.3264 54.5414 84.2298C55.0602 83.1763 55.1087 82.9343 55.1087 81.4035C55.1087 79.9508 55.0457 79.5951 54.6323 78.713C54.0312 77.4303 52.4315 75.7407 51.2706 75.1624C50.4163 74.7368 49.8929 74.659 49.1293 74.8445Z" fill="black"/>
</svg>
