<svg width="85" height="86" viewBox="0 0 85 86" fill="none" xmlns="http://www.w3.org/2000/svg">
<path fill-rule="evenodd" clip-rule="evenodd" d="M41.1141 0.10661C40.641 0.309998 1.91629 22.4263 1.22857 22.8859C0.932824 23.0834 0.535469 23.5218 0.345371 23.8597C0.0267472 24.4267 0 24.7547 0 28.0855C0 31.5631 0.0141315 31.7177 0.382551 32.2643C1.1347 33.3804 1.67791 33.597 3.72591 33.597H5.55153L5.54816 51.8918L5.5448 70.1866L4.67338 70.6912C3.29424 71.4898 1.8135 73.0703 1.11031 74.494C0.127013 76.4849 0.00420588 77.187 0.00201891 80.8354C-0.000168054 84.4659 0.0600583 84.7184 1.12225 85.5286L1.74015 86H42.057H82.3739L82.9918 85.5286C84.054 84.7184 84.1142 84.4659 84.112 80.8354C84.1098 77.187 83.987 76.4849 83.0037 74.494C82.3006 73.0703 80.8198 71.4898 79.4407 70.6912L78.5692 70.1866L78.5659 51.8918L78.5625 33.597H80.3881C82.4361 33.597 82.9793 33.3804 83.7315 32.2643C84.0999 31.7177 84.114 31.5631 84.114 28.0855C84.114 24.7547 84.0873 24.4267 83.7687 23.8597C83.5786 23.5218 83.1812 23.0834 82.8855 22.8857C82.5897 22.688 73.4975 17.4726 62.6808 11.2958C45.677 1.58567 42.9094 0.0576565 42.2411 0.00971152C41.816 -0.0207378 41.3089 0.0228327 41.1141 0.10661ZM60.3939 16.4797L78.4784 26.8182L78.5306 27.4319L78.5829 28.0454H42.057H5.53117L5.58349 27.4319L5.63564 26.8184L23.8043 16.4229C33.797 10.7053 42.0486 6.05297 42.1411 6.08426C42.2337 6.11572 50.4474 10.7936 60.3939 16.4797ZM35.1529 17.1616C32.8405 18.3844 33.3435 21.733 35.9297 22.3329C36.2927 22.417 39.0499 22.4858 42.057 22.4858C45.0641 22.4858 47.8214 22.417 48.1844 22.3329C50.7706 21.733 51.2736 18.3844 48.9611 17.1616C48.2349 16.7775 48.1748 16.7741 42.057 16.7741C35.9392 16.7741 35.8792 16.7775 35.1529 17.1616ZM72.9269 36.4568V39.2326H42.057H11.1872L11.1406 36.6321C11.1148 35.2018 11.1315 33.9336 11.1774 33.8138C11.2455 33.6365 16.9851 33.604 42.094 33.6385L72.9269 33.6811V36.4568ZM16.8228 57.0648V69.2613H13.9629H11.1031V57.0648V44.8682H13.9629H16.8228V57.0648ZM33.6456 57.0648V69.2613H28.01H22.3743V57.0648V44.8682H28.01H33.6456V57.0648ZM44.9169 57.0648V69.2613H42.057H39.1971V57.0648V44.8682H42.057H44.9169V57.0648ZM61.7397 57.0648V69.2613H56.1041H50.4684V57.0648V44.8682H56.1041H61.7397V57.0648ZM73.011 57.0648V69.2613H70.1511H67.2912V57.0648V44.8682H70.1511H73.011V57.0648ZM76.0391 75.2507C77.6463 76.0019 78.5581 77.5011 78.5608 79.3971L78.5625 80.5326H42.057H5.55153L5.55321 79.3971C5.55439 78.5386 5.65482 78.0563 5.96453 77.4204C6.61675 76.0813 7.16837 75.5732 8.45313 75.1283C9.29729 74.8357 10.8073 74.8238 42.3094 74.8594L75.2821 74.8969L76.0391 75.2507Z" fill="black"/>
</svg>
