<svg width="80" height="80" viewBox="0 0 80 80" fill="none" xmlns="http://www.w3.org/2000/svg">
<path fill-rule="evenodd" clip-rule="evenodd" d="M33.4232 0.330859C32.9868 0.546691 32.6198 0.890832 32.3674 1.32125L31.9805 1.98077V34.5968C31.9805 70.2589 31.9144 67.819 32.9048 68.6517C34.2903 69.8163 36.2633 69.3881 37.0024 67.7622C37.2788 67.154 37.2923 66.3211 37.2956 49.5816L37.299 32.0384L57.4388 32.0315C78.8069 32.0244 78.2743 32.042 79.0971 31.3109C79.5245 30.9313 79.9955 29.889 79.9998 29.3137C80.0086 28.1352 79.6934 27.8207 72.4825 21.8162C68.6929 18.6604 65.6143 16.0203 65.6413 15.9492C65.6683 15.8781 68.506 13.4817 71.9473 10.6239C79.0145 4.75517 79.6177 4.21005 79.8611 3.47284C80.2777 2.21208 79.4003 0.506838 78.1576 0.162069C77.7741 0.0556384 70.2409 0.00124995 55.8355 0.000624803L34.0923 0L33.4232 0.330859ZM69.5966 5.61334C69.427 5.77838 67.0356 7.78369 64.2825 10.0695C61.0507 12.753 59.1752 14.4173 58.9901 14.7663C58.6427 15.4211 58.6184 16.5259 58.938 17.1348C59.2665 17.7604 59.7583 18.1997 65.1037 22.6423C67.7063 24.8053 69.8356 26.6087 69.8356 26.6498C69.8356 26.6911 62.5149 26.7247 53.5673 26.7247H37.299V16.0191V5.31343H53.602C69.6796 5.31343 69.9008 5.31765 69.5966 5.61334ZM23.5335 54.0239C23.3184 54.054 22.333 54.1881 21.3436 54.3219C10.1744 55.8318 2.2194 59.631 0.368724 64.3391C0.0888785 65.0508 0.00878749 65.5731 0.00112262 66.734C-0.00795008 68.127 0.0261524 68.2911 0.554246 69.3909C1.61951 71.6092 3.70889 73.4103 7.18217 75.1043C17.1197 79.9513 36.0432 81.419 51.1427 78.5136C60.4411 76.7246 66.6935 73.5087 68.6488 69.5095C70.6658 65.3843 68.017 60.9603 61.7897 58.0529C57.7983 56.1895 50.4949 54.3682 46.0589 54.1303C44.7877 54.062 44.4937 54.0942 44.0253 54.3521C42.4598 55.2143 42.1964 57.3317 43.5018 58.5618C44.125 59.1488 44.5085 59.259 47.1538 59.6106C52.5621 60.3297 58.1296 61.9967 61.126 63.7938C63.1953 65.0352 64.099 66.0785 63.9205 67.0206C63.7927 67.6958 62.2295 69.0769 60.6706 69.8923C48.6328 76.1887 21.1279 76.2825 8.9515 70.0684C6.43789 68.7858 5.01833 67.3395 5.32508 66.3739C5.83268 64.7759 9.35696 62.7248 13.9452 61.3571C16.2797 60.6614 19.5306 59.969 22.4184 59.553C25.0094 59.1796 25.5943 58.9517 26.1621 58.0947C27.4027 56.2214 25.7804 53.7089 23.5335 54.0239Z" fill="black"/>
</svg>
