<svg width="62" height="62" viewBox="0 0 62 62" fill="none" xmlns="http://www.w3.org/2000/svg">
<rect width="62" height="62" rx="6" fill="white"/>
<path fill-rule="evenodd" clip-rule="evenodd" d="M14.9916 13.0288C15.0529 13.0542 22.9442 16.2825 32.5278 20.2027C42.1114 24.123 50.0865 27.4045 50.2503 27.4951C50.414 27.5857 50.6499 27.8048 50.7744 27.9821C50.9718 28.2635 51.0005 28.3674 51 28.7998C50.9995 29.1888 50.9596 29.3663 50.8142 29.6266C50.4333 30.3082 50.8933 30.1952 41.7103 31.8611C37.173 32.6843 33.4381 33.3803 33.4106 33.4078C33.3831 33.4353 32.6872 37.1708 31.8642 41.7089C30.1985 50.8933 30.3114 50.4332 29.63 50.8142C29.3697 50.9596 29.1922 50.9995 28.8033 51C28.371 51.0005 28.2671 50.9718 27.9857 50.7743C27.8085 50.6498 27.5894 50.4139 27.4989 50.2502C27.4083 50.0864 24.1177 42.0933 20.1865 32.4877C14.9344 19.6547 13.0299 14.9245 13.0052 14.6514C12.9321 13.8408 13.6425 13.0548 14.4932 13.0052C14.706 12.9928 14.9303 13.0034 14.9916 13.0288ZM17.5514 17.6433C17.7666 18.2175 28.1811 43.6547 28.219 43.6986C28.246 43.7301 28.764 41.0206 29.3701 37.6776C29.9762 34.3347 30.5212 31.4991 30.5813 31.3765C30.7352 31.0622 31.038 30.7533 31.3424 30.6001C31.4977 30.5219 34.0518 30.0248 37.6776 29.3672C41.0189 28.7612 43.7355 28.2481 43.7144 28.227C43.6652 28.1779 17.6511 17.5232 17.5663 17.5175C17.5313 17.5152 17.5246 17.5717 17.5514 17.6433Z" fill="#0097D4"/>
</svg>
