<svg width="90" height="90" viewBox="0 0 90 90" fill="none" xmlns="http://www.w3.org/2000/svg">
<path fill-rule="evenodd" clip-rule="evenodd" d="M68.127 0.056145C64.2013 0.628463 60.8107 2.07474 57.9363 4.40323C55.336 6.50941 53.0191 9.71802 51.8817 12.788C50.8742 15.5072 50.442 18.9186 50.8012 21.3183C51.7224 27.4718 57.4095 36.971 66.6617 47.8101C68.6039 50.0853 69.2824 50.6025 70.3249 50.6025C71.3668 50.6025 72.046 50.0849 73.9896 47.8101C82.4237 37.9382 87.9341 29.1121 89.5311 22.9172C90.0215 21.0152 90.0547 17.8664 89.6065 15.778C87.9195 7.91664 82.0674 2.03833 74.281 0.383812C72.9243 0.0955422 69.2126 -0.102148 68.127 0.056145ZM74.281 6.18685C76.6548 6.88738 78.335 7.89589 80.2301 9.75759C82.6853 12.1695 84.1014 15.3176 84.3231 18.8559C84.4095 20.2327 84.3618 20.645 83.9572 22.0218C82.839 25.8282 79.7198 31.2202 74.9023 37.6753C72.7532 40.555 70.5177 43.3035 70.3249 43.3035C69.9713 43.3035 64.6597 36.3804 62.2959 32.8385C59.4973 28.645 57.2534 24.2799 56.5998 21.758C55.5027 17.5242 57.4874 12.1165 61.3146 8.91195C64.9627 5.85742 69.7531 4.85067 74.281 6.18685ZM68.4614 11.4665C66.8931 11.8077 65.6435 12.5137 64.3926 13.7649C61.0925 17.066 61.1038 22.2401 64.4183 25.5558C67.7453 28.8838 72.9044 28.8838 76.2314 25.5558C79.5459 22.2401 79.5572 17.066 76.2571 13.7649C74.9806 12.488 73.758 11.8087 72.1062 11.4584C70.6913 11.1585 69.8684 11.1602 68.4614 11.4665ZM71.4502 17.0785C71.7728 17.2134 72.2444 17.5959 72.4981 17.9285C73.4208 19.1389 73.3311 20.5096 72.2589 21.5821C71.1025 22.7389 69.5992 22.7522 68.4055 21.6162C66.1585 19.4782 68.575 15.8767 71.4502 17.0785ZM15.9821 28.2299C8.09383 31.3935 1.4212 34.1265 1.15395 34.3033C0.886692 34.48 0.518161 34.9549 0.33495 35.3585C0.013011 36.0681 0.00193227 36.9501 0.000877309 61.9469L0 87.8015L0.393499 88.505C0.82656 89.2794 2.00812 90 2.84505 90C3.11477 90 9.54651 87.5146 17.1376 84.477L30.9397 78.9538L44.7417 84.477C52.3329 87.5146 58.7813 90 59.0716 90C59.7262 90 88.1368 78.6718 88.9029 78.1053C90.0792 77.2354 90.032 78.0865 89.9782 58.662C89.9299 41.2678 89.9267 41.1269 89.567 40.645C88.8781 39.722 88.3161 39.4341 87.2042 39.4341C86.0923 39.4341 85.5303 39.722 84.8415 40.645C84.4828 41.1254 84.478 41.3093 84.391 57.5974L84.3031 74.0641L73.4018 78.4279C67.4061 80.828 62.3634 82.8356 62.1957 82.8891C61.9084 82.9811 61.8882 82.1115 61.844 67.6868C61.7978 52.5452 61.7936 52.3819 61.4347 51.9014C60.7458 50.9784 60.1839 50.6905 59.0719 50.6905C57.96 50.6905 57.3981 50.9784 56.7092 51.9014C56.3503 52.3819 56.3461 52.5452 56.2999 67.6868C56.2557 82.1135 56.2357 82.9807 55.9482 82.8847C55.7805 82.8286 50.7378 80.8227 44.7421 78.427L33.8408 74.0713L33.7962 51.7839C33.7717 39.5261 33.7909 29.4968 33.8391 29.4968C33.8872 29.4968 36.9141 30.6919 40.5651 32.1528C46.66 34.5912 47.2766 34.8026 48.0951 34.735C48.5934 34.6941 49.1931 34.5117 49.4551 34.3217C50.0447 33.8942 50.6323 32.7274 50.6323 31.9844C50.6323 31.2565 50.0723 30.1588 49.5142 29.793C48.6308 29.214 31.4629 22.4615 30.895 22.4698C30.5712 22.4743 24.1195 24.9664 15.9821 28.2299ZM28.0832 51.7848L28.0385 74.0731L16.9615 78.5056C10.8691 80.9435 5.82478 82.9442 5.75182 82.9514C5.67902 82.9588 5.63946 72.9369 5.6639 60.6807L5.70856 38.3967L16.7856 33.9548C22.878 31.5118 27.9223 29.5094 27.9953 29.5049C28.0681 29.5005 28.1076 39.5264 28.0832 51.7848Z" fill="black"/>
</svg>
