<svg width="62" height="62" viewBox="0 0 62 62" fill="none" xmlns="http://www.w3.org/2000/svg">
<rect width="62" height="62" rx="6" fill="white"/>
<path fill-rule="evenodd" clip-rule="evenodd" d="M15.823 10.0542C15.123 10.179 14.1756 10.5238 13.5106 10.8958C12.6682 11.3669 11.3794 12.6559 10.9084 13.4984C9.53966 15.9462 9.69631 18.225 11.5238 22.4491C12.7918 25.38 15.1813 29.8681 15.807 30.494C16.3255 31.0125 17.0684 31.1231 17.7504 30.7832C18.2556 30.5314 18.4174 30.3105 19.4637 28.4435C21.6002 24.6313 23.311 20.768 23.7754 18.7069C24.3115 16.3273 23.7089 13.9473 22.1407 12.2512C21.2435 11.281 19.9527 10.5061 18.6831 10.1758C18.0529 10.0117 16.4446 9.94337 15.823 10.0542ZM17.9985 13.6481C19.6939 14.1774 20.6902 15.7926 20.4086 17.5553C20.294 18.2724 19.8468 19.6606 19.3657 20.7927C18.9274 21.8237 17.6867 24.3993 17.2664 25.1508L16.9722 25.6765L16.1139 23.9601C13.9136 19.5597 13.2243 17.3628 13.6274 16.0342C13.9834 14.8615 14.8456 13.9879 16.0103 13.6199C16.5112 13.4615 17.4434 13.4748 17.9985 13.6481ZM27.0989 22.2929C26.5969 22.4151 26.1851 22.7456 25.952 23.2135C25.6999 23.7196 25.6883 24.1658 25.9146 24.6647C26.1399 25.1615 26.2876 25.3124 26.7703 25.5392L27.1809 25.732L30.9987 25.7347C34.6588 25.7372 34.8317 25.7442 35.1845 25.9042C35.6812 26.1296 35.8321 26.2773 36.0589 26.7601C36.3852 27.455 36.2573 28.1759 35.7108 28.7219C35.2079 29.2244 35.2502 29.2194 31.1218 29.2658C27.5064 29.3065 27.3267 29.3158 26.9144 29.4838C26.2343 29.7608 25.7705 30.0629 25.2943 30.5393C24.5275 31.3061 24.1541 32.1058 24.0227 33.2625C23.9506 33.8976 23.9126 34.0084 23.6917 34.2294L23.4422 34.479L19.6464 34.5235C16.0136 34.5659 15.8302 34.5754 15.3764 34.7456C14.1316 35.2121 13.2863 35.8611 12.6139 36.8665C12.0085 37.7718 11.7681 38.5878 11.769 39.7345C11.7702 41.2436 12.2156 42.3343 13.2643 43.3964C13.9372 44.078 14.6042 44.4917 15.5221 44.797L16.0969 44.9881L24.3808 45.0129C30.3613 45.0307 32.7903 45.0115 33.1166 44.9438C33.7349 44.8154 34.3048 44.2623 34.4326 43.6665C34.6083 42.8473 34.2456 42.0704 33.5185 41.708L33.1011 41.5L24.8864 41.4991L16.6716 41.4983L16.2611 41.3055C15.7783 41.0787 15.6306 40.9278 15.4053 40.431C15.1055 39.7699 15.2465 39.042 15.7772 38.5118C16.2802 38.0092 16.2379 38.0142 20.3663 37.9678C23.9817 37.9272 24.1614 37.9178 24.5737 37.7499C25.2538 37.4728 25.7176 37.1707 26.1938 36.6944C26.9606 35.9276 27.334 35.1278 27.4653 33.9712C27.5375 33.3361 27.5754 33.2253 27.7964 33.0042L28.0459 32.7546L31.8417 32.7102C35.4745 32.6677 35.6579 32.6582 36.1117 32.4881C37.3565 32.0216 38.2018 31.3726 38.8741 30.3672C39.4796 29.4618 39.72 28.6458 39.7191 27.4992C39.7178 25.9633 39.2729 24.892 38.1839 23.8028C37.4771 23.0959 36.9199 22.7537 35.9659 22.4408C35.4024 22.256 35.3137 22.2519 31.4092 22.2327C29.0343 22.2209 27.2947 22.2452 27.0989 22.2929ZM43.7247 31.1125C40.6582 31.7326 38.4 34.1774 38.0655 37.2392C37.8908 38.8389 38.2566 40.3921 39.5108 43.3766C40.3614 45.4008 42.7253 49.9804 43.5311 51.1655C44.1456 52.069 45.2254 52.2641 46.084 51.6267C46.6511 51.2057 49.3157 46.2542 50.5614 43.3065C52.3067 39.177 52.4411 36.9382 51.0889 34.5201C50.6179 33.6776 49.3291 32.3886 48.4867 31.9175C47.0269 31.101 45.2593 30.8021 43.7247 31.1125ZM45.9513 34.6369C47.1751 35.0085 48.0664 35.9298 48.4032 37.1714C48.7395 38.4114 48.0319 40.6795 46.0845 44.603C45.54 45.7 45.0689 46.6133 45.0377 46.6327C44.9615 46.6797 43.1877 43.1098 42.6709 41.8695C42.1241 40.5572 41.6976 39.2582 41.5878 38.571C41.3095 36.8286 42.2984 35.2116 43.971 34.6741C44.5192 34.4979 45.4365 34.4808 45.9513 34.6369Z" fill="#0097D4"/>
</svg>
